<svg width="1920" height="1080" viewBox="0 0 1920 1080" xmlns="http://www.w3.org/2000/svg">
  <defs>
    <!-- 主背景渐变 -->
    <linearGradient id="mainGradient" x1="0%" y1="0%" x2="100%" y2="100%">
      <stop offset="0%" style="stop-color:#667eea;stop-opacity:1" />
      <stop offset="50%" style="stop-color:#764ba2;stop-opacity:1" />
      <stop offset="100%" style="stop-color:#f093fb;stop-opacity:1" />
    </linearGradient>
    
    <!-- 次要渐变 -->
    <linearGradient id="secondaryGradient" x1="0%" y1="0%" x2="100%" y2="0%">
      <stop offset="0%" style="stop-color:#4facfe;stop-opacity:0.8" />
      <stop offset="100%" style="stop-color:#00f2fe;stop-opacity:0.8" />
    </linearGradient>
    
    <!-- 装饰渐变 -->
    <radialGradient id="decorGradient" cx="50%" cy="50%" r="50%">
      <stop offset="0%" style="stop-color:#ffffff;stop-opacity:0.3" />
      <stop offset="100%" style="stop-color:#ffffff;stop-opacity:0" />
    </radialGradient>
    
    <!-- 模糊滤镜 -->
    <filter id="blur">
      <feGaussianBlur in="SourceGraphic" stdDeviation="3"/>
    </filter>
  </defs>
  
  <!-- 主背景 -->
  <rect width="1920" height="1080" fill="url(#mainGradient)"/>
  
  <!-- 装饰性几何形状 -->
  <g opacity="0.1">
    <!-- 大圆形 -->
    <circle cx="1600" cy="200" r="300" fill="url(#decorGradient)"/>
    <circle cx="300" cy="800" r="250" fill="url(#decorGradient)"/>
    
    <!-- 三角形 -->
    <polygon points="100,100 300,50 200,250" fill="rgba(255,255,255,0.1)"/>
    <polygon points="1500,700 1700,650 1600,850" fill="rgba(255,255,255,0.1)"/>
    
    <!-- 矩形 -->
    <rect x="1200" y="100" width="200" height="200" rx="20" fill="rgba(255,255,255,0.08)" transform="rotate(45 1300 200)"/>
    <rect x="50" y="400" width="150" height="150" rx="15" fill="rgba(255,255,255,0.08)" transform="rotate(30 125 475)"/>
  </g>
  
  <!-- 浮动粒子效果 -->
  <g opacity="0.6">
    <circle cx="200" cy="300" r="4" fill="#ffffff">
      <animate attributeName="cy" values="300;280;300" dur="3s" repeatCount="indefinite"/>
    </circle>
    <circle cx="800" cy="200" r="3" fill="#ffffff">
      <animate attributeName="cy" values="200;180;200" dur="4s" repeatCount="indefinite"/>
    </circle>
    <circle cx="1400" cy="400" r="5" fill="#ffffff">
      <animate attributeName="cy" values="400;370;400" dur="3.5s" repeatCount="indefinite"/>
    </circle>
    <circle cx="600" cy="600" r="3" fill="#ffffff">
      <animate attributeName="cy" values="600;580;600" dur="2.8s" repeatCount="indefinite"/>
    </circle>
    <circle cx="1100" cy="700" r="4" fill="#ffffff">
      <animate attributeName="cy" values="700;680;700" dur="3.2s" repeatCount="indefinite"/>
    </circle>
  </g>
  
  <!-- 波浪装饰 -->
  <g opacity="0.3">
    <path d="M0,800 Q480,750 960,800 T1920,800 L1920,1080 L0,1080 Z" fill="url(#secondaryGradient)"/>
  </g>
  
  <!-- 网格装饰 -->
  <g opacity="0.05" stroke="#ffffff" stroke-width="1" fill="none">
    <defs>
      <pattern id="grid" width="100" height="100" patternUnits="userSpaceOnUse">
        <path d="M 100 0 L 0 0 0 100"/>
      </pattern>
    </defs>
    <rect width="1920" height="1080" fill="url(#grid)"/>
  </g>
</svg> 