<svg width="1920" height="1080" viewBox="0 0 1920 1080" xmlns="http://www.w3.org/2000/svg">
  <defs>
    <!-- 天空渐变 -->
    <linearGradient id="skyGradient" x1="0%" y1="0%" x2="0%" y2="100%">
      <stop offset="0%" style="stop-color:#87CEEB;stop-opacity:1" />
      <stop offset="30%" style="stop-color:#B0E0E6;stop-opacity:1" />
      <stop offset="70%" style="stop-color:#F0F8FF;stop-opacity:1" />
      <stop offset="100%" style="stop-color:#FFFAF0;stop-opacity:1" />
    </linearGradient>
    
    <!-- 平原渐变 -->
    <linearGradient id="prairieGradient" x1="0%" y1="0%" x2="0%" y2="100%">
      <stop offset="0%" style="stop-color:#9ACD32;stop-opacity:1" />
      <stop offset="50%" style="stop-color:#8FBC8F;stop-opacity:1" />
      <stop offset="100%" style="stop-color:#6B8E23;stop-opacity:1" />
    </linearGradient>
    
    <!-- 远山渐变 -->
    <linearGradient id="mountainGradient" x1="0%" y1="0%" x2="0%" y2="100%">
      <stop offset="0%" style="stop-color:#708090;stop-opacity:0.6" />
      <stop offset="100%" style="stop-color:#2F4F4F;stop-opacity:0.8" />
    </linearGradient>
    
    <!-- 云朵滤镜 -->
    <filter id="cloudBlur">
      <feGaussianBlur in="SourceGraphic" stdDeviation="2"/>
    </filter>
  </defs>
  
  <!-- 天空背景 -->
  <rect width="1920" height="650" fill="url(#skyGradient)"/>
  
  <!-- 远山层次 -->
  <g opacity="0.4">
    <path d="M0,400 Q400,350 800,380 Q1200,410 1600,370 Q1800,360 1920,380 L1920,650 L0,650 Z" fill="url(#mountainGradient)"/>
  </g>
  
  <g opacity="0.3">
    <path d="M0,450 Q300,420 600,440 Q900,460 1200,430 Q1500,400 1920,420 L1920,650 L0,650 Z" fill="url(#mountainGradient)"/>
  </g>
  
  <!-- 平原地面 -->
  <path d="M0,500 Q480,480 960,500 Q1440,520 1920,500 L1920,1080 L0,1080 Z" fill="url(#prairieGradient)"/>
  
  <!-- 草地纹理 -->
  <g opacity="0.3">
    <!-- 前景草丛 -->
    <g stroke="#556B2F" stroke-width="1.5" fill="none">
      <path d="M100,600 Q105,580 110,600 M120,605 Q125,585 130,605"/>
      <path d="M200,610 Q205,590 210,610 M220,615 Q225,595 230,615"/>
      <path d="M350,595 Q355,575 360,595 M370,600 Q375,580 380,600"/>
      <path d="M500,605 Q505,585 510,605 M520,610 Q525,590 530,610"/>
      <path d="M700,590 Q705,570 710,590 M720,595 Q725,575 730,595"/>
      <path d="M900,600 Q905,580 910,600 M920,605 Q925,585 930,605"/>
      <path d="M1200,595 Q1205,575 1210,595 M1220,600 Q1225,580 1230,600"/>
      <path d="M1500,610 Q1505,590 1510,610 M1520,615 Q1525,595 1530,615"/>
      <path d="M1700,585 Q1705,565 1710,585 M1720,590 Q1725,570 1730,590"/>
    </g>
  </g>
  
  <!-- 云朵 -->
  <g opacity="0.7" filter="url(#cloudBlur)">
    <!-- 主要云朵 -->
    <ellipse cx="300" cy="150" rx="80" ry="25" fill="#FFFFFF"/>
    <ellipse cx="320" cy="140" rx="60" ry="20" fill="#FFFFFF"/>
    <ellipse cx="280" cy="140" rx="50" ry="18" fill="#FFFFFF"/>
    
    <ellipse cx="700" cy="120" rx="90" ry="30" fill="#FFFFFF"/>
    <ellipse cx="720" cy="110" rx="70" ry="25" fill="#FFFFFF"/>
    <ellipse cx="680" cy="110" rx="55" ry="20" fill="#FFFFFF"/>
    
    <ellipse cx="1200" cy="180" rx="75" ry="22" fill="#FFFFFF"/>
    <ellipse cx="1220" cy="170" rx="55" ry="18" fill="#FFFFFF"/>
    <ellipse cx="1180" cy="170" rx="45" ry="15" fill="#FFFFFF"/>
    
    <ellipse cx="1600" cy="100" rx="85" ry="28" fill="#FFFFFF"/>
    <ellipse cx="1620" cy="90" rx="65" ry="23" fill="#FFFFFF"/>
    <ellipse cx="1580" cy="90" rx="50" ry="18" fill="#FFFFFF"/>
  </g>
  
  <!-- 远处的小树或灌木 -->
  <g opacity="0.4">
    <ellipse cx="400" cy="520" rx="8" ry="15" fill="#2F4F4F"/>
    <ellipse cx="800" cy="510" rx="6" ry="12" fill="#2F4F4F"/>
    <ellipse cx="1200" cy="525" rx="7" ry="14" fill="#2F4F4F"/>
    <ellipse cx="1600" cy="515" rx="5" ry="10" fill="#2F4F4F"/>
  </g>
  
  <!-- 微风效果 -->
  <g opacity="0.2">
    <path d="M200,300 Q250,295 300,300" stroke="#FFFFFF" stroke-width="1" fill="none">
      <animate attributeName="d" values="M200,300 Q250,295 300,300;M200,305 Q250,300 300,305;M200,300 Q250,295 300,300" dur="4s" repeatCount="indefinite"/>
    </path>
    <path d="M600,250 Q650,245 700,250" stroke="#FFFFFF" stroke-width="1" fill="none">
      <animate attributeName="d" values="M600,250 Q650,245 700,250;M600,255 Q650,250 700,255;M600,250 Q650,245 700,250" dur="5s" repeatCount="indefinite"/>
    </path>
    <path d="M1100,280 Q1150,275 1200,280" stroke="#FFFFFF" stroke-width="1" fill="none">
      <animate attributeName="d" values="M1100,280 Q1150,275 1200,280;M1100,285 Q1150,280 1200,285;M1100,280 Q1150,275 1200,280" dur="3.5s" repeatCount="indefinite"/>
    </path>
  </g>
  
  <!-- 暗色模式遮罩 -->
  <rect width="1920" height="1080" fill="rgba(0,0,0,0)" class="dark-overlay">
    <animate attributeName="fill" values="rgba(0,0,0,0);rgba(0,0,0,0)" dur="1s"/>
  </rect>
</svg> 